<svg width="88" height="98" viewBox="0 0 88 98" fill="none" xmlns="http://www.w3.org/2000/svg">
<path d="M88 49C88 73.3005 68.3005 93 44 93C19.6995 93 0 73.3005 0 49C0 24.6995 19.6995 5 44 5C68.3005 5 88 24.6995 88 49Z" fill="#88C9F9"/>
<path d="M46.68 78.96C42.2533 78.96 38.1733 78.2667 34.44 76.88C30.76 75.44 27.5333 73.4133 24.76 70.8C22.04 68.1867 19.9067 65.12 18.36 61.6C16.8667 58.08 16.12 54.2133 16.12 50C16.12 45.7867 16.8667 41.92 18.36 38.4C19.9067 34.88 22.0667 31.8133 24.84 29.2C27.6133 26.5867 30.8667 24.5867 34.6 23.2C38.3333 21.76 42.44 21.04 46.92 21.04C51.88 21.04 56.3333 21.8667 60.28 23.52C64.28 25.1733 67.64 27.5733 70.36 30.72L62.04 38.4C60.0133 36.2667 57.8 34.6933 55.4 33.68C53 32.6133 50.3867 32.08 47.56 32.08C44.84 32.08 42.36 32.5067 40.12 33.36C37.88 34.2133 35.9333 35.44 34.28 37.04C32.68 38.64 31.4267 40.5333 30.52 42.72C29.6667 44.9067 29.24 47.3333 29.24 50C29.24 52.6133 29.6667 55.0133 30.52 57.2C31.4267 59.3867 32.68 61.3067 34.28 62.96C35.9333 64.56 37.8533 65.7867 40.04 66.64C42.28 67.4933 44.7333 67.92 47.4 67.92C49.96 67.92 52.44 67.52 54.84 66.72C57.2933 65.8667 59.6667 64.4533 61.96 62.48L69.32 71.84C66.28 74.1333 62.7333 75.8933 58.68 77.12C54.68 78.3467 50.68 78.96 46.68 78.96ZM57.48 70.16V49.12H69.32V71.84L57.48 70.16Z" fill="#5C913B"/>
</svg>
